# xmcd
#
# Track frame offsets: 
#        150
#        10575
#        34684
#        50227
#        70960
#        96317
#        111073
#        141902
#        163883
#        182047
#        204820
#        220484
#        250376
#        264483
#        281681
#        306784
#        331390
#
# Disc length: 4781 seconds
#
# Revision: 0
# Processed by: cddbd v1.5.2PL0 Copyright (c) Steve Scherf et al.
# Submitted via: ExactAudioCopy v0.95a5
#
DISCID=0212ab11
DTITLE=Various Artist - Woman and The Blues  CD-5
DYEAR=2008
DGENRE=Blues
TTITLE0=Black Cat Blues - CAFE R&B
TTITLE1=Golden Loom - MARIA MULDAUR
TTITLE2=One More Time - DABBIE DAVIES
TTITLE3=Limousine Blues - JAN JAMES
TTITLE4=Don't Start Crying Now - JANIVA  MAGNESS
TTITLE5=My Little Boy Blue - MICKEY CHAMPION
TTITLE6=I'm Free - CAFE R&B
TTITLE7=It's A Man's Man's Man's World - ETTA JAMES
TTITLE8=How Long How Long Blues - LAURIE Waddy MITCHELL
TTITLE9=Steamy Windows - SHEMEKIA COPELAND
TTITLE10=My Love Is - DIANA KRALL
TTITLE11=Gotta Serve Somebody - MAVIS STAPLES
TTITLE12=Not For The Love Of You - SHIRLEY JOHNSON
TTITLE13=If I Ever Needed Love - VICKIE CARRICO
TTITLE14=After You Get Rid of Me - KATIE WEBSTER
TTITLE15=Phonecall from Leavenworth - CAFE R&B
TTITLE16=Strange Behaviour - RITA CHIARELLI
EXTD=
EXTT0=
EXTT1=
EXTT2=
EXTT3=
EXTT4=
EXTT5=
EXTT6=
EXTT7=
EXTT8=
EXTT9=
EXTT10=
EXTT11=
EXTT12=
EXTT13=
EXTT14=
EXTT15=
EXTT16=
PLAYORDER=
